<svg width="22" height="20" viewBox="0 0 22 20" fill="none" xmlns="http://www.w3.org/2000/svg">
<path d="M19.0051 1.41992H3.02532C2.48817 1.41992 1.97302 1.6333 1.5932 2.01312C1.21338 2.39294 1 2.90809 1 3.44524V12.6199C1 12.8859 1.05239 13.1493 1.15417 13.395C1.25595 13.6407 1.40513 13.864 1.5932 14.052C1.78127 14.2401 2.00454 14.3893 2.25026 14.4911C2.49598 14.5929 2.75935 14.6452 3.02532 14.6452H4.68608L7.02532 18.6959C7.10032 18.8286 7.20922 18.939 7.34088 19.0158C7.47254 19.0926 7.62225 19.1331 7.77468 19.1331C7.92712 19.1331 8.07682 19.0926 8.20849 19.0158C8.34015 18.939 8.44905 18.8286 8.52405 18.6959L10.8734 14.6452H18.9747C19.5118 14.6452 20.027 14.4319 20.4068 14.052C20.7866 13.6722 21 13.1571 21 12.6199V3.44524C21.0001 2.91331 20.7909 2.40272 20.4176 2.02376C20.0443 1.6448 19.5369 1.4279 19.0051 1.41992Z" stroke="white" stroke-linecap="round" stroke-linejoin="round"/>
<path d="M3.93677 6.08838H10.0127" stroke="white" stroke-linecap="round" stroke-linejoin="round"/>
<path d="M3.93677 10.1389H17.1013" stroke="white" stroke-linecap="round" stroke-linejoin="round"/>
</svg>
