<svg width="460" height="161" viewBox="0 0 460 161" fill="none" xmlns="http://www.w3.org/2000/svg">
<path d="M172.148 37.9031C179.002 37.9031 185.194 38.8055 190.726 40.6105C196.377 42.2951 201.127 44.5212 204.975 47.2887C207.38 48.9733 209.244 50.8384 210.566 52.884C212.009 54.9296 212.731 57.5768 212.731 60.8257V123.998C212.731 130.376 211.528 135.851 209.123 140.423C206.719 145.116 203.412 148.967 199.203 151.975C195.115 155.103 190.245 157.39 184.593 158.834C179.062 160.277 173.11 160.999 166.737 160.999C155.794 160.999 147.197 159.495 140.944 156.487C134.691 153.599 131.565 148.846 131.565 142.228C131.565 139.461 132.106 136.994 133.188 134.828C134.39 132.782 135.713 131.218 137.156 130.135C140.643 132.06 144.551 133.685 148.88 135.008C153.329 136.332 157.899 136.994 162.588 136.994C169.081 136.994 174.252 135.911 178.1 133.745C181.948 131.579 183.872 128.09 183.872 123.276V120.388C178.942 122.554 172.929 123.637 165.835 123.637C160.424 123.637 155.253 122.855 150.323 121.291C145.513 119.606 141.245 117.079 137.517 113.71C133.909 110.221 130.963 105.769 128.679 100.354C126.514 94.9389 125.432 88.5014 125.432 81.041C125.432 73.7009 126.574 67.3235 128.859 61.9087C131.264 56.4939 134.511 52.0417 138.599 48.5522C142.808 44.9423 147.738 42.2951 153.389 40.6105C159.161 38.8055 165.414 37.9031 172.148 37.9031ZM183.331 64.0746C182.489 63.5933 181.226 63.112 179.543 62.6306C177.98 62.1493 175.996 61.9087 173.591 61.9087C167.699 61.9087 163.25 63.5933 160.243 66.9625C157.357 70.2114 155.915 74.9042 155.915 81.041C155.915 88.02 157.357 93.0738 160.243 96.2024C163.25 99.2106 167.037 100.715 171.607 100.715C176.537 100.715 180.445 99.5716 183.331 97.2853V64.0746ZM254.646 37.9031C261.5 37.9031 267.692 38.8055 273.224 40.6105C278.875 42.2951 283.625 44.5212 287.473 47.2887C289.878 48.9733 291.742 50.8384 293.064 52.884C294.507 54.9296 295.229 57.5768 295.229 60.8257V123.998C295.229 130.376 294.026 135.851 291.621 140.423C289.216 145.116 285.91 148.967 281.701 151.975C277.613 155.103 272.743 157.39 267.091 158.834C261.56 160.277 255.608 160.999 249.235 160.999C238.292 160.999 229.695 159.495 223.442 156.487C217.189 153.599 214.063 148.846 214.063 142.228C214.063 139.461 214.604 136.994 215.686 134.828C216.888 132.782 218.211 131.218 219.654 130.135C223.141 132.06 227.049 133.685 231.378 135.008C235.827 136.332 240.397 136.994 245.086 136.994C251.579 136.994 256.75 135.911 260.598 133.745C264.446 131.579 266.37 128.09 266.37 123.276V120.388C261.44 122.554 255.427 123.637 248.333 123.637C242.922 123.637 237.751 122.855 232.821 121.291C228.011 119.606 223.742 117.079 220.015 113.71C216.407 110.221 213.461 105.769 211.177 100.354C209.012 94.9389 207.93 88.5014 207.93 81.041C207.93 73.7009 209.072 67.3235 211.357 61.9087C213.762 56.4939 217.009 52.0417 221.097 48.5522C225.306 44.9423 230.236 42.2951 235.887 40.6105C241.659 38.8055 247.912 37.9031 254.646 37.9031ZM265.829 64.0746C264.987 63.5933 263.724 63.112 262.041 62.6306C260.478 62.1493 258.494 61.9087 256.089 61.9087C250.197 61.9087 245.747 63.5933 242.741 66.9625C239.855 70.2114 238.412 74.9042 238.412 81.041C238.412 88.02 239.855 93.0738 242.741 96.2024C245.747 99.2106 249.535 100.715 254.105 100.715C259.035 100.715 262.943 99.5716 265.829 97.2853V64.0746Z" fill="white"/>
<path d="M336.42 37.9036C341.351 37.9036 346.161 38.6256 350.85 40.0695C355.66 41.3931 359.811 43.4387 363.298 46.2063C366.905 43.7997 370.932 41.8143 375.383 40.25C379.951 38.6857 385.422 37.9036 391.794 37.9036C396.365 37.9036 400.812 38.5052 405.142 39.7085C409.592 40.9118 413.499 42.8371 416.868 45.4843C420.354 48.0112 423.118 51.4406 425.164 55.7724C427.206 59.9839 428.23 65.158 428.23 71.2948V128.15C427.028 128.511 425.103 128.872 422.457 129.233C419.934 129.594 417.287 129.775 414.523 129.775C411.876 129.775 409.471 129.594 407.308 129.233C405.263 128.872 403.52 128.15 402.075 127.067C400.634 125.984 399.492 124.54 398.649 122.735C397.927 120.81 397.568 118.343 397.568 115.335V72.1973C397.568 68.5874 396.543 66.0004 394.501 64.4361C392.456 62.7515 389.691 61.9092 386.205 61.9092C384.519 61.9092 382.715 62.3303 380.794 63.1726C378.869 63.8946 377.425 64.6768 376.464 65.5191C376.585 66.0004 376.646 66.4817 376.646 66.963C376.646 67.324 376.646 67.685 376.646 68.046V128.15C375.322 128.511 373.337 128.872 370.69 129.233C368.168 129.594 365.582 129.775 362.935 129.775C360.291 129.775 357.886 129.594 355.72 129.233C353.678 128.872 351.935 128.15 350.49 127.067C349.046 125.984 347.904 124.54 347.064 122.735C346.342 120.81 345.983 118.343 345.983 115.335V72.1973C345.983 68.5874 344.837 66.0004 342.553 64.4361C340.39 62.7515 337.744 61.9092 334.617 61.9092C332.453 61.9092 330.589 62.2702 329.027 62.9921C327.462 63.5938 326.142 64.1954 325.057 64.7971V128.15C323.856 128.511 321.932 128.872 319.286 129.233C316.761 129.594 314.116 129.775 311.35 129.775C308.705 129.775 306.3 129.594 304.135 129.233C302.091 128.872 300.348 128.15 298.905 127.067C297.462 125.984 296.319 124.54 295.478 122.735C294.756 120.81 294.396 118.343 294.396 115.335V60.8262C294.396 57.5773 295.057 54.9903 296.38 53.065C297.823 51.1398 299.746 49.3348 302.151 47.6502C306.24 44.7623 311.29 42.4159 317.302 40.611C323.435 38.806 329.807 37.9036 336.42 37.9036ZM426.373 16.2444C426.373 11.6719 427.874 7.82137 430.881 4.69283C434.008 1.56428 438.095 0 443.147 0C448.195 0 452.226 1.56428 455.232 4.69283C458.359 7.82137 459.921 11.6719 459.921 16.2444C459.921 20.8169 458.359 24.6674 455.232 27.796C452.226 30.9245 448.195 32.4888 443.147 32.4888C438.095 32.4888 434.008 30.9245 430.881 27.796C427.874 24.6674 426.373 20.8169 426.373 16.2444ZM458.477 128.15C457.157 128.391 455.172 128.692 452.525 129.053C449.999 129.534 447.416 129.775 444.769 129.775C442.126 129.775 439.721 129.594 437.555 129.233C435.512 128.872 433.766 128.15 432.325 127.067C430.881 125.984 429.739 124.54 428.899 122.735C428.177 120.81 427.814 118.343 427.814 115.335V41.8744C429.137 41.6338 431.062 41.333 433.588 40.972C436.231 40.4907 438.878 40.25 441.525 40.25C444.168 40.25 446.513 40.4305 448.558 40.7915C450.721 41.1525 452.525 41.8744 453.969 42.9574C455.41 44.0403 456.495 45.5445 457.214 47.4697C458.057 49.2747 458.477 51.6812 458.477 54.6894V128.15Z" fill="#DA2321"/>
<path d="M76.9162 46.8494C77.7579 48.173 78.4794 49.9779 79.0806 52.2642C79.8021 54.4301 80.1628 56.7163 80.1628 59.1229C80.1628 63.8157 79.1407 67.1849 77.0965 69.2305C75.1726 71.1558 72.5272 72.1184 69.1603 72.1184H31.2827V92.5142H70.7836C71.7456 93.8378 72.5272 95.5825 73.1284 97.7485C73.8499 99.9144 74.2106 102.201 74.2106 104.607C74.2106 109.18 73.1885 112.489 71.1443 114.534C69.2204 116.46 66.575 117.422 63.2081 117.422H31.6435V155.506C30.3208 155.867 28.2165 156.228 25.3306 156.589C22.5649 156.95 19.7992 157.131 17.0336 157.131C14.2679 157.131 11.8029 156.89 9.63843 156.409C7.59424 156.048 5.85067 155.326 4.40772 154.243C2.96477 153.16 1.88255 151.656 1.16107 149.731C0.439596 147.805 0.0788574 145.278 0.0788574 142.15V63.6352C0.0788574 58.4611 1.58194 54.3699 4.58809 51.3617C7.59424 48.3535 11.6826 46.8494 16.8532 46.8494H76.9162Z" fill="white"/>
<path d="M111.288 154.978C110.115 155.163 108.354 155.395 106.007 155.673C103.766 156.043 101.472 156.229 99.1251 156.229C96.7779 156.229 94.6441 156.09 92.7235 155.812C90.9097 155.534 89.363 154.978 88.0826 154.145C86.8022 153.311 85.7885 152.2 85.0418 150.811C84.4016 149.329 84.0815 147.43 84.0815 145.115V88.5755C85.2551 88.3903 86.9621 88.1588 89.2028 87.8808C91.5499 87.5104 93.8974 87.3252 96.2445 87.3252C98.5917 87.3252 100.672 87.464 102.486 87.742C104.407 88.0199 106.007 88.5755 107.287 89.4091C108.567 90.2423 109.528 91.4002 110.168 92.8818C110.915 94.271 111.288 96.1233 111.288 98.4388V154.978Z" fill="white"/>
<path d="M95.1094 36.24C92.7486 32.8985 89.4797 30.1744 85.7024 28.5037C84.9033 32.1357 84.2859 35.2593 86.2472 37.8018C88.9712 41.2522 93.6929 40.5622 95.1094 36.24Z" fill="#A80200"/>
<path d="M77.6039 30.0648C78.5482 28.9389 79.3473 27.8492 80.0374 26.7959C78.8388 26.6143 77.6039 26.5054 76.369 26.5054C74.8072 26.5054 73.2817 26.6507 71.8289 26.9412C71.2115 30.2101 71.611 34.2054 74.1534 38.7818C74.553 35.7308 75.3883 32.7162 77.6039 30.0648Z" fill="#A80200"/>
<path d="M141.2 49.4964C141.2 36.8205 130.885 26.5054 118.209 26.5054C111.817 26.5054 106.042 29.1205 101.865 33.3337C110.873 43.903 103.972 54.6176 99.5768 60.1747C97.2523 63.1167 88.8622 72.1969 89.0438 78.6257C89.0075 78.9889 88.9712 79.3521 88.9712 79.7153C88.9712 83.7469 92.2401 87.0521 96.308 87.0521C100.34 87.0521 103.645 83.7832 103.645 79.7153C103.645 77.9719 103.027 76.3738 102.047 75.1389C106.224 78.1898 107.604 85.8535 107.349 88.7228C107.168 90.6478 106.623 92.5365 105.751 94.2799L134.517 65.7318C136.878 63.3709 138.731 60.5016 139.893 57.3054C140.692 54.8356 141.2 52.2205 141.2 49.4964Z" fill="#A80200"/>
<path d="M62.5668 39.6902C62.5668 39.6902 59.7701 43.068 59.7338 47.027C59.6612 53.8553 65.7631 55.635 68.9956 51.4945C73.2451 46.0463 65.5088 37.8015 69.5404 27.5591C60.1697 30.4647 53.3777 39.1817 53.3777 49.4968C53.3777 49.7874 53.3777 50.0779 53.414 50.3685C55.4116 45.8647 58.4263 42.1237 62.5668 39.6902Z" fill="#A80200"/>
<rect x="119.455" y="34.1323" width="6.58764" height="26.1509" fill="white"/>
<rect x="109.674" y="50.5015" width="6.58764" height="26.1509" transform="rotate(-90 109.674 50.5015)" fill="white"/>
<path d="M107.314 88.7595C107.568 85.9264 106.188 78.2628 102.011 75.1755C103.028 76.4467 103.609 78.0085 103.609 79.7519C103.609 83.7835 100.34 87.0887 96.2725 87.0887C92.2409 87.0887 88.9357 83.8198 88.9357 79.7519C88.9357 79.3887 88.972 79.0255 89.0083 78.6623C88.8267 72.2335 97.2168 63.1897 99.5414 60.2113C103.9 54.6543 110.801 43.9397 101.83 33.3703C99.9409 35.2953 98.3791 37.5472 97.2532 40.0533C96.6357 38.7095 95.9093 37.4746 95.0739 36.276C93.6574 40.5981 88.9357 41.2882 86.2116 37.8378C84.2503 35.2953 84.8315 32.208 85.6668 28.5397C83.8871 27.7769 81.9984 27.1958 80.0008 26.8689C79.3107 27.9222 78.5116 29.0118 77.5673 30.1378C75.3517 32.7892 74.5164 35.8038 74.1168 38.8547C71.5744 34.2783 71.1749 30.3194 71.7923 27.0142C71.0296 27.1595 70.2305 27.3774 69.5041 27.5953C65.4725 37.8378 73.2088 46.0826 68.9593 51.567C65.7267 55.7076 59.6249 53.9279 59.6975 47.0996C59.7338 43.1406 62.5305 39.7628 62.5305 39.7628C58.4263 42.1963 55.3753 45.9373 53.3777 50.4047C53.4503 52.7656 53.9225 55.0175 54.6489 57.1604C55.5933 59.8845 57.0824 62.3543 58.8984 64.4972C59.6975 65.4052 60.5329 66.2769 61.4772 67.0396L96.5267 101.835C96.7447 102.053 97.0352 102.162 97.2895 102.162C97.58 102.162 97.8706 102.053 98.0885 101.835L105.68 94.2802C106.588 92.5731 107.132 90.6845 107.314 88.7595Z" fill="url(#paint0_linear_1_4461)"/>
<defs>
<linearGradient id="paint0_linear_1_4461" x1="53.3777" y1="79.0882" x2="93.0273" y2="79.0882" gradientUnits="userSpaceOnUse">
<stop stop-color="#DA2321"/>
<stop offset="1" stop-color="#F78924"/>
</linearGradient>
</defs>
</svg>
