<svg width="22" height="22" viewBox="0 0 22 22" fill="none" xmlns="http://www.w3.org/2000/svg">
<path d="M20.1666 20.1667H1.83325" stroke="white" stroke-linecap="round"/>
<path d="M1.83325 10.0833L9.28199 4.12434C10.2864 3.32086 11.7135 3.32086 12.7178 4.12434L20.1666 10.0833" stroke="white" stroke-linecap="round"/>
<path d="M14.2083 5.04167V3.20833C14.2083 2.9552 14.4135 2.75 14.6666 2.75H16.9583C17.2113 2.75 17.4166 2.9552 17.4166 3.20833V7.79167" stroke="white" stroke-linecap="round"/>
<path d="M3.66675 20.1666V8.70825" stroke="white" stroke-linecap="round"/>
<path d="M18.3333 20.1666V8.70825" stroke="white" stroke-linecap="round"/>
<path d="M13.75 20.1666V15.5833C13.75 14.2869 13.75 13.6387 13.3473 13.2359C12.9445 12.8333 12.2964 12.8333 11 12.8333C9.70365 12.8333 9.05546 12.8333 8.65273 13.2359C8.25 13.6387 8.25 14.2869 8.25 15.5833V20.1666" stroke="white"/>
<path d="M12.8334 8.70833C12.8334 9.72088 12.0126 10.5417 11.0001 10.5417C9.98753 10.5417 9.16675 9.72088 9.16675 8.70833C9.16675 7.69581 9.98753 6.875 11.0001 6.875C12.0126 6.875 12.8334 7.69581 12.8334 8.70833Z" stroke="white"/>
</svg>
