<svg width="22" height="23" viewBox="0 0 22 23" fill="none" xmlns="http://www.w3.org/2000/svg">
<path d="M11 21.4199C16.5228 21.4199 21 16.9428 21 11.4199C21 5.89707 16.5228 1.41992 11 1.41992C5.47715 1.41992 1 5.89707 1 11.4199C1 16.9428 5.47715 21.4199 11 21.4199Z" stroke="white" stroke-linecap="square"/>
<path d="M11 21.4199C13.7451 18.9957 15.1176 15.6623 15.1176 11.4199C15.1176 7.1775 13.7451 3.84416 11 1.41992C8.25487 3.84416 6.88232 7.1775 6.88232 11.4199C6.88232 15.6623 8.25487 18.9957 11 21.4199Z" stroke="white" stroke-linecap="round"/>
<path d="M1.58813 8.47876H20.4117M1.58813 14.3611H20.4117" stroke="white" stroke-linecap="round"/>
</svg>
