<svg width="20" height="23" viewBox="0 0 20 23" fill="none" xmlns="http://www.w3.org/2000/svg">
<path d="M17.5 9.34154C17.5 15.8807 10 21.4857 10 21.4857C10 21.4857 2.5 15.8807 2.5 9.34154C2.5 7.11174 3.29018 4.97327 4.6967 3.39657C6.10322 1.81987 8.01088 0.934082 10 0.934082C11.9891 0.934082 13.8968 1.81987 15.3033 3.39657C16.7098 4.97327 17.5 7.11174 17.5 9.34154Z" stroke="white" stroke-opacity="0.8" stroke-linecap="round" stroke-linejoin="round"/>
<path d="M10 12.144C11.3807 12.144 12.5 10.8893 12.5 9.34155C12.5 7.79378 11.3807 6.53906 10 6.53906C8.61929 6.53906 7.5 7.79378 7.5 9.34155C7.5 10.8893 8.61929 12.144 10 12.144Z" stroke="white" stroke-opacity="0.8" stroke-linecap="round" stroke-linejoin="round"/>
</svg>
