<svg width="19" height="25" viewBox="0 0 19 25" fill="none" xmlns="http://www.w3.org/2000/svg">
<path d="M9.5 0.625C4.25363 0.625 0 4.61277 0 9.53125C0 11.468 0.677271 13.2452 1.80302 14.7006C1.82321 14.7355 1.82638 14.7744 1.84933 14.8078L8.18267 23.7141C8.47638 24.1271 8.97117 24.375 9.5 24.375C10.0288 24.375 10.5236 24.1271 10.8173 23.7141L17.1507 14.8078C17.174 14.7744 17.1768 14.7355 17.197 14.7006C18.3227 13.2452 19 11.468 19 9.53125C19 4.61277 14.7464 0.625 9.5 0.625ZM9.5 12.5C7.75121 12.5 6.33333 11.1707 6.33333 9.53125C6.33333 7.89176 7.75121 6.5625 9.5 6.5625C11.2488 6.5625 12.6667 7.89176 12.6667 9.53125C12.6667 11.1707 11.2488 12.5 9.5 12.5Z" fill="white"/>
</svg>
