<svg width="129" height="46" viewBox="0 0 129 46" fill="none" xmlns="http://www.w3.org/2000/svg">
<path d="M48.0938 11.0942C50.0095 11.0942 51.7404 11.3465 53.2864 11.851C54.866 12.3218 56.1936 12.944 57.2691 13.7176C57.9413 14.1884 58.4622 14.7097 58.8319 15.2815C59.2352 15.8532 59.4369 16.5931 59.4369 17.5012V35.1581C59.4369 36.9406 59.1008 38.4709 58.4286 39.7489C57.7564 41.0606 56.8322 42.1368 55.6559 42.9776C54.5131 43.8521 53.152 44.4911 51.5723 44.8947C50.0263 45.2983 48.3627 45.5001 46.5814 45.5001C43.5229 45.5001 41.1199 45.0797 39.3722 44.2388C37.6245 43.4317 36.7507 42.1032 36.7507 40.2534C36.7507 39.4799 36.9019 38.7904 37.2044 38.185C37.5405 37.6133 37.9102 37.1761 38.3135 36.8734C39.2882 37.4115 40.3805 37.8655 41.5904 38.2355C42.834 38.6054 44.1111 38.7904 45.4219 38.7904C47.2368 38.7904 48.6819 38.4877 49.7574 37.8823C50.8329 37.277 51.3707 36.3016 51.3707 34.9563V34.1492C49.9927 34.7545 48.3122 35.0572 46.3293 35.0572C44.8169 35.0572 43.3717 34.8386 41.9937 34.4014C40.6494 33.9306 39.4562 33.2243 38.4143 32.2826C37.4061 31.3072 36.5826 30.0628 35.9441 28.5494C35.3391 27.0359 35.0366 25.2366 35.0366 23.1514C35.0366 21.0998 35.3559 19.3173 35.9945 17.8039C36.6667 16.2904 37.5741 15.046 38.7168 14.0707C39.8931 13.0617 41.2711 12.3218 42.8508 11.851C44.464 11.3465 46.2117 11.0942 48.0938 11.0942ZM51.2194 18.4093C50.9842 18.2747 50.6313 18.1402 50.1608 18.0057C49.7238 17.8711 49.1693 17.8039 48.4971 17.8039C46.8503 17.8039 45.6067 18.2747 44.7665 19.2164C43.9599 20.1245 43.5566 21.4362 43.5566 23.1514C43.5566 25.1021 43.9599 26.5146 44.7665 27.3891C45.6067 28.2299 46.6654 28.6503 47.9425 28.6503C49.3205 28.6503 50.4128 28.3308 51.2194 27.6918V18.4093ZM71.1522 11.0942C73.0679 11.0942 74.7988 11.3465 76.3448 11.851C77.9245 12.3218 79.252 12.944 80.3275 13.7176C80.9997 14.1884 81.5207 14.7097 81.8904 15.2815C82.2937 15.8532 82.4953 16.5931 82.4953 17.5012V35.1581C82.4953 36.9406 82.1592 38.4709 81.487 39.7489C80.8149 41.0606 79.8906 42.1368 78.7143 42.9776C77.5716 43.8521 76.2104 44.4911 74.6308 44.8947C73.0847 45.2983 71.4211 45.5001 69.6398 45.5001C66.5814 45.5001 64.1783 45.0797 62.4306 44.2388C60.683 43.4317 59.8091 42.1032 59.8091 40.2534C59.8091 39.4799 59.9604 38.7904 60.2628 38.185C60.5989 37.6133 60.9686 37.1761 61.3719 36.8734C62.3466 37.4115 63.4389 37.8655 64.6488 38.2355C65.8924 38.6054 67.1695 38.7904 68.4803 38.7904C70.2952 38.7904 71.7404 38.4877 72.8159 37.8823C73.8914 37.277 74.4291 36.3016 74.4291 34.9563V34.1492C73.0511 34.7545 71.3707 35.0572 69.3877 35.0572C67.8753 35.0572 66.4301 34.8386 65.0522 34.4014C63.7078 33.9306 62.5147 33.2243 61.4728 32.2826C60.4645 31.3072 59.6411 30.0628 59.0025 28.5494C58.3975 27.0359 58.0951 25.2366 58.0951 23.1514C58.0951 21.0998 58.4143 19.3173 59.0529 17.8039C59.7251 16.2904 60.6325 15.046 61.7753 14.0707C62.9516 13.0617 64.3296 12.3218 65.9092 11.851C67.5224 11.3465 69.2701 11.0942 71.1522 11.0942ZM74.2779 18.4093C74.0426 18.2747 73.6897 18.1402 73.2192 18.0057C72.7823 17.8711 72.2277 17.8039 71.5555 17.8039C69.9087 17.8039 68.6651 18.2747 67.8249 19.2164C67.0183 20.1245 66.615 21.4362 66.615 23.1514C66.615 25.1021 67.0183 26.5146 67.8249 27.3891C68.6651 28.2299 69.7238 28.6503 71.001 28.6503C72.379 28.6503 73.4713 28.3308 74.2779 27.6918V18.4093Z" fill="#212121"/>
<path d="M94.0085 11.0942C95.3866 11.0942 96.731 11.296 98.0416 11.6995C99.3859 12.0695 100.546 12.6413 101.521 13.4148C102.529 12.7422 103.655 12.1872 104.899 11.75C106.175 11.3128 107.705 11.0942 109.486 11.0942C110.763 11.0942 112.006 11.2623 113.216 11.5987C114.46 11.935 115.552 12.4731 116.494 13.213C117.468 13.9193 118.241 14.8778 118.813 16.0886C119.383 17.2657 119.67 18.7119 119.67 20.4271V36.3184C119.334 36.4193 118.796 36.5202 118.056 36.6211C117.351 36.722 116.611 36.7724 115.838 36.7724C115.099 36.7724 114.427 36.722 113.822 36.6211C113.25 36.5202 112.763 36.3184 112.359 36.0157C111.957 35.713 111.637 35.3094 111.402 34.8049C111.2 34.2668 111.099 33.5773 111.099 32.7365V20.6794C111.099 19.6704 110.813 18.9473 110.242 18.5101C109.671 18.0392 108.898 17.8038 107.923 17.8038C107.452 17.8038 106.948 17.9215 106.411 18.1569C105.873 18.3587 105.469 18.5774 105.201 18.8128C105.235 18.9473 105.252 19.0818 105.252 19.2164C105.252 19.3173 105.252 19.4182 105.252 19.5191V36.3184C104.882 36.4193 104.327 36.5202 103.587 36.6211C102.882 36.722 102.159 36.7724 101.419 36.7724C100.681 36.7724 100.008 36.722 99.4028 36.6211C98.8321 36.5202 98.3448 36.3184 97.9411 36.0157C97.5374 35.713 97.2182 35.3094 96.9835 34.8049C96.7817 34.2668 96.6813 33.5773 96.6813 32.7365V20.6794C96.6813 19.6704 96.3611 18.9473 95.7227 18.5101C95.1182 18.0392 94.3784 17.8038 93.5043 17.8038C92.8998 17.8038 92.3787 17.9047 91.9422 18.1065C91.5047 18.2747 91.1357 18.4428 90.8325 18.611V36.3184C90.4967 36.4193 89.9589 36.5202 89.2195 36.6211C88.5138 36.722 87.7744 36.7724 87.0013 36.7724C86.2619 36.7724 85.5898 36.722 84.9848 36.6211C84.4134 36.5202 83.9261 36.3184 83.5228 36.0157C83.1195 35.713 82.8002 35.3094 82.5649 34.8049C82.3633 34.2668 82.2625 33.5773 82.2625 32.7365V17.5011C82.2625 16.593 82.4473 15.87 82.817 15.3318C83.2203 14.7937 83.7581 14.2892 84.4302 13.8184C85.573 13.0112 86.9845 12.3554 88.665 11.8509C90.3791 11.3464 92.16 11.0942 94.0085 11.0942ZM119.151 5.04036C119.151 3.76233 119.57 2.6861 120.41 1.81166C121.284 0.93722 122.427 0.5 123.839 0.5C125.25 0.5 126.377 0.93722 127.217 1.81166C128.091 2.6861 128.527 3.76233 128.527 5.04036C128.527 6.31839 128.091 7.39462 127.217 8.26906C126.377 9.14349 125.25 9.58071 123.839 9.58071C122.427 9.58071 121.284 9.14349 120.41 8.26906C119.57 7.39462 119.151 6.31839 119.151 5.04036ZM128.124 36.3184C127.755 36.3856 127.2 36.4697 126.46 36.5706C125.754 36.7051 125.032 36.7724 124.292 36.7724C123.554 36.7724 122.881 36.722 122.276 36.6211C121.705 36.5202 121.217 36.3184 120.814 36.0157C120.41 35.713 120.091 35.3094 119.857 34.8049C119.655 34.2668 119.553 33.5773 119.553 32.7365V12.204C119.923 12.1368 120.461 12.0527 121.167 11.9518C121.906 11.8173 122.646 11.75 123.386 11.75C124.124 11.75 124.78 11.8004 125.351 11.9013C125.956 12.0022 126.46 12.204 126.864 12.5067C127.267 12.8094 127.57 13.2298 127.771 13.7679C128.006 14.2724 128.124 14.9451 128.124 15.7859V36.3184Z" fill="#DA2321"/>
<path d="M21.4763 13.5947C21.7115 13.9647 21.9132 14.4692 22.0812 15.1082C22.2829 15.7136 22.3837 16.3526 22.3837 17.0252C22.3837 18.3369 22.098 19.2786 21.5267 19.8503C20.9889 20.3884 20.2495 20.6575 19.3085 20.6575H8.72158V26.3582H19.7622C20.0311 26.7281 20.2495 27.2158 20.4176 27.8212C20.6192 28.4266 20.7201 29.0656 20.7201 29.7382C20.7201 31.0162 20.4344 31.9411 19.863 32.5129C19.3253 33.051 18.5859 33.3201 17.6448 33.3201H8.82241V43.9647C8.45271 44.0656 7.86455 44.1665 7.05793 44.2674C6.28492 44.3683 5.51191 44.4187 4.73889 44.4187C3.96588 44.4187 3.2769 44.3514 2.67193 44.2169C2.10057 44.116 1.61324 43.9142 1.20993 43.6115C0.80662 43.3088 0.504138 42.8884 0.302483 42.3503C0.100828 41.8122 0 41.1059 0 40.2315V18.2864C0 16.8402 0.420115 15.6967 1.26034 14.8559C2.10057 14.0151 3.24329 13.5947 4.68848 13.5947H21.4763Z" fill="#212121"/>
<path d="M31.0832 43.8169C30.7552 43.8687 30.2631 43.9334 29.607 44.0111C28.9808 44.1147 28.3396 44.1664 27.6836 44.1664C27.0276 44.1664 26.4311 44.1276 25.8943 44.0499C25.3874 43.9722 24.9551 43.8169 24.5972 43.584C24.2393 43.3511 23.956 43.0404 23.7473 42.6521C23.5684 42.2379 23.4789 41.7073 23.4789 41.0601V25.2572C23.8069 25.2054 24.284 25.1407 24.9103 25.063C25.5663 24.9595 26.2224 24.9077 26.8785 24.9077C27.5345 24.9077 28.116 24.9465 28.623 25.0242C29.1598 25.1019 29.607 25.2572 29.9649 25.4902C30.3228 25.7231 30.5912 26.0467 30.7701 26.4608C30.9788 26.8491 31.0832 27.3668 31.0832 28.014V43.8169Z" fill="#212121"/>
<path d="M26.5617 10.6291C25.9018 9.69516 24.9881 8.93378 23.9324 8.4668C23.709 9.48197 23.5364 10.355 24.0846 11.0656C24.846 12.0301 26.1657 11.8372 26.5617 10.6291Z" fill="#A80200"/>
<path d="M21.6684 8.90308C21.9323 8.58837 22.1557 8.28382 22.3485 7.98942C22.0135 7.93866 21.6684 7.9082 21.3232 7.9082C20.8867 7.9082 20.4603 7.94881 20.0542 8.03002C19.8817 8.94368 19.9933 10.0604 20.704 11.3395C20.8156 10.4868 21.0491 9.64415 21.6684 8.90308Z" fill="#A80200"/>
<path d="M39.4442 14.3343C39.4442 10.7913 36.5611 7.9082 33.0181 7.9082C31.2314 7.9082 29.6173 8.63913 28.4498 9.81673C30.9675 12.7709 29.0386 15.7657 27.8103 17.3189C27.1605 18.1412 24.8155 20.6791 24.8663 22.476C24.8561 22.5775 24.8459 22.679 24.8459 22.7805C24.8459 23.9074 25.7596 24.8312 26.8966 24.8312C28.0234 24.8312 28.9473 23.9175 28.9473 22.7805C28.9473 22.2933 28.7747 21.8466 28.5006 21.5014C29.668 22.3542 30.0538 24.4962 29.9827 25.2982C29.932 25.8362 29.7797 26.3641 29.5361 26.8514L37.5763 18.8721C38.2361 18.2122 38.7539 17.4103 39.0787 16.5169C39.3021 15.8266 39.4442 15.0957 39.4442 14.3343Z" fill="#A80200"/>
<path d="M17.4656 11.5933C17.4656 11.5933 16.6839 12.5374 16.6738 13.644C16.6535 15.5525 18.359 16.0499 19.2625 14.8926C20.4502 13.3699 18.2879 11.0654 19.4148 8.20264C16.7956 9.01478 14.8972 11.4512 14.8972 14.3343C14.8972 14.4155 14.8972 14.4967 14.9074 14.5779C15.4657 13.3191 16.3083 12.2735 17.4656 11.5933Z" fill="#A80200"/>
<rect x="33.3665" y="10.04" width="1.84127" height="7.30927" fill="white"/>
<rect x="30.6327" y="14.6157" width="1.84127" height="7.30927" transform="rotate(-90 30.6327 14.6157)" fill="white"/>
<path d="M29.9726 25.3084C30.0436 24.5165 29.6579 22.3745 28.4904 21.5116C28.7747 21.8669 28.9371 22.3034 28.9371 22.7907C28.9371 23.9176 28.0234 24.8414 26.8864 24.8414C25.7596 24.8414 24.8358 23.9277 24.8358 22.7907C24.8358 22.6892 24.8459 22.5877 24.8561 22.4862C24.8053 20.6893 27.1504 18.1615 27.8001 17.3291C29.0183 15.7759 30.9472 12.7811 28.4397 9.82693C27.9118 10.365 27.4753 10.9944 27.1605 11.6949C26.988 11.3192 26.7849 10.9741 26.5514 10.6391C26.1555 11.8471 24.8358 12.04 24.0744 11.0756C23.5262 10.365 23.6886 9.50207 23.9221 8.47675C23.4247 8.26356 22.8968 8.10113 22.3385 8.00977C22.1456 8.30417 21.9222 8.60872 21.6583 8.92342C21.039 9.6645 20.8055 10.5071 20.6939 11.3598C19.9832 10.0807 19.8716 8.97418 20.0442 8.05037C19.831 8.09098 19.6076 8.15189 19.4046 8.2128C18.2778 11.0756 20.4401 13.38 19.2523 14.913C18.3488 16.0703 16.6433 15.5728 16.6636 13.6643C16.6738 12.5578 17.4555 11.6136 17.4555 11.6136C16.3083 12.2938 15.4556 13.3394 14.8972 14.5881C14.9175 15.248 15.0495 15.8774 15.2525 16.4763C15.5165 17.2377 15.9327 17.928 16.4403 18.527C16.6636 18.7808 16.8971 19.0244 17.1611 19.2376L26.9575 28.963C27.0184 29.0239 27.0996 29.0544 27.1707 29.0544C27.2519 29.0544 27.3331 29.0239 27.394 28.963L29.5158 26.8514C29.7695 26.3743 29.9218 25.8464 29.9726 25.3084Z" fill="url(#paint0_linear_1_1528)"/>
<defs>
<linearGradient id="paint0_linear_1_1528" x1="14.8972" y1="22.6052" x2="25.9794" y2="22.6052" gradientUnits="userSpaceOnUse">
<stop stop-color="#DA2321"/>
<stop offset="1" stop-color="#F78924"/>
</linearGradient>
</defs>
</svg>
