<?xml version="1.0" encoding="utf-8"?>
<!-- Generator: Adobe Illustrator 24.0.1, SVG Export Plug-In . SVG Version: 6.00 Build 0)  -->
<svg version="1.1" id="Capa_1" xmlns="http://www.w3.org/2000/svg" xmlns:xlink="http://www.w3.org/1999/xlink" x="0px" y="0px"
	 viewBox="0 0 460 161" style="enable-background:new 0 0 460 161;" xml:space="preserve">
<style type="text/css">
	.st0{fill:#101010;}
	.st1{fill:#DA2321;}
	.st2{fill:#A80200;}
	.st3{fill:#FFFFFF;}
	.st4{fill:url(#SVGID_1_);}
</style>
<path class="st0" d="M172.1,37.9c6.9,0,13,0.9,18.6,2.7c5.7,1.7,10.4,3.9,14.2,6.7c2.4,1.7,4.3,3.5,5.6,5.6c1.4,2,2.2,4.7,2.2,7.9
	V124c0,6.4-1.2,11.9-3.6,16.4c-2.4,4.7-5.7,8.5-9.9,11.6c-4.1,3.1-9,5.4-14.6,6.9c-5.5,1.4-11.5,2.2-17.9,2.2
	c-10.9,0-19.5-1.5-25.8-4.5c-6.3-2.9-9.4-7.6-9.4-14.3c0-2.8,0.5-5.2,1.6-7.4c1.2-2,2.5-3.6,4-4.7c3.5,1.9,7.4,3.6,11.7,4.9
	c4.4,1.3,9,2,13.7,2c6.5,0,11.7-1.1,15.5-3.2c3.8-2.2,5.8-5.7,5.8-10.5v-2.9c-4.9,2.2-10.9,3.2-18,3.2c-5.4,0-10.6-0.8-15.5-2.3
	c-4.8-1.7-9.1-4.2-12.8-7.6c-3.6-3.5-6.6-7.9-8.8-13.4c-2.2-5.4-3.2-11.9-3.2-19.3c0-7.3,1.1-13.7,3.4-19.1
	c2.4-5.4,5.7-9.9,9.7-13.4c4.2-3.6,9.1-6.3,14.8-7.9C159.2,38.8,165.4,37.9,172.1,37.9z M183.3,64.1c-0.8-0.5-2.1-1-3.8-1.4
	c-1.6-0.5-3.5-0.7-6-0.7c-5.9,0-10.3,1.7-13.3,5.1c-2.9,3.2-4.3,7.9-4.3,14.1c0,7,1.4,12,4.3,15.2c3,3,6.8,4.5,11.4,4.5
	c4.9,0,8.8-1.1,11.7-3.4V64.1z M254.6,37.9c6.9,0,13,0.9,18.6,2.7c5.7,1.7,10.4,3.9,14.2,6.7c2.4,1.7,4.3,3.5,5.6,5.6
	c1.4,2,2.2,4.7,2.2,7.9V124c0,6.4-1.2,11.9-3.6,16.4c-2.4,4.7-5.7,8.5-9.9,11.6c-4.1,3.1-9,5.4-14.6,6.9c-5.5,1.4-11.5,2.2-17.9,2.2
	c-10.9,0-19.5-1.5-25.8-4.5c-6.3-2.9-9.4-7.6-9.4-14.3c0-2.8,0.5-5.2,1.6-7.4c1.2-2,2.5-3.6,4-4.7c3.5,1.9,7.4,3.6,11.7,4.9
	c4.4,1.3,9,2,13.7,2c6.5,0,11.7-1.1,15.5-3.2c3.8-2.2,5.8-5.7,5.8-10.5v-2.9c-4.9,2.2-10.9,3.2-18,3.2c-5.4,0-10.6-0.8-15.5-2.3
	c-4.8-1.7-9.1-4.2-12.8-7.6c-3.6-3.5-6.6-7.9-8.8-13.4c-2.2-5.4-3.2-11.9-3.2-19.3c0-7.3,1.1-13.7,3.4-19.1
	c2.4-5.4,5.7-9.9,9.7-13.4c4.2-3.6,9.1-6.3,14.8-7.9C241.7,38.8,247.9,37.9,254.6,37.9z M265.8,64.1c-0.8-0.5-2.1-1-3.8-1.4
	c-1.6-0.5-3.5-0.7-6-0.7c-5.9,0-10.3,1.7-13.3,5.1c-2.9,3.2-4.3,7.9-4.3,14.1c0,7,1.4,12,4.3,15.2c3,3,6.8,4.5,11.4,4.5
	c4.9,0,8.8-1.1,11.7-3.4V64.1z"/>
<path class="st1" d="M336.4,37.9c4.9,0,9.7,0.7,14.4,2.2c4.8,1.3,9,3.4,12.4,6.1c3.6-2.4,7.6-4.4,12.1-6c4.6-1.6,10-2.3,16.4-2.3
	c4.6,0,9,0.6,13.3,1.8c4.5,1.2,8.4,3.1,11.7,5.8c3.5,2.5,6.3,6,8.3,10.3c2,4.2,3.1,9.4,3.1,15.5v56.9c-1.2,0.4-3.1,0.7-5.8,1.1
	c-2.5,0.4-5.2,0.5-7.9,0.5c-2.6,0-5.1-0.2-7.2-0.5c-2-0.4-3.8-1.1-5.2-2.2c-1.4-1.1-2.6-2.5-3.4-4.3c-0.7-1.9-1.1-4.4-1.1-7.4V72.2
	c0-3.6-1-6.2-3.1-7.8c-2-1.7-4.8-2.5-8.3-2.5c-1.7,0-3.5,0.4-5.4,1.3c-1.9,0.7-3.4,1.5-4.3,2.3c0.1,0.5,0.2,1,0.2,1.4
	c0,0.4,0,0.7,0,1.1v60.1c-1.3,0.4-3.3,0.7-6,1.1c-2.5,0.4-5.1,0.5-7.8,0.5c-2.6,0-5-0.2-7.2-0.5c-2-0.4-3.8-1.1-5.2-2.2
	c-1.4-1.1-2.6-2.5-3.4-4.3c-0.7-1.9-1.1-4.4-1.1-7.4V72.2c0-3.6-1.1-6.2-3.4-7.8c-2.2-1.7-4.8-2.5-7.9-2.5c-2.2,0-4,0.4-5.6,1.1
	c-1.6,0.6-2.9,1.2-4,1.8v63.4c-1.2,0.4-3.1,0.7-5.8,1.1c-2.5,0.4-5.2,0.5-7.9,0.5c-2.6,0-5.1-0.2-7.2-0.5c-2-0.4-3.8-1.1-5.2-2.2
	s-2.6-2.5-3.4-4.3c-0.7-1.9-1.1-4.4-1.1-7.4V60.8c0-3.2,0.7-5.8,2-7.8c1.4-1.9,3.4-3.7,5.8-5.4c4.1-2.9,9.1-5.2,15.2-7
	C323.4,38.8,329.8,37.9,336.4,37.9z M426.4,16.2c0-4.6,1.5-8.4,4.5-11.6C434,1.6,438.1,0,443.1,0c5,0,9.1,1.6,12.1,4.7
	c3.1,3.1,4.7,7,4.7,11.6s-1.6,8.4-4.7,11.6c-3,3.1-7,4.7-12.1,4.7c-5.1,0-9.1-1.6-12.3-4.7C427.9,24.7,426.4,20.8,426.4,16.2z
	 M458.5,128.1c-1.3,0.2-3.3,0.5-6,0.9c-2.5,0.5-5.1,0.7-7.8,0.7c-2.6,0-5-0.2-7.2-0.5c-2-0.4-3.8-1.1-5.2-2.2
	c-1.4-1.1-2.6-2.5-3.4-4.3c-0.7-1.9-1.1-4.4-1.1-7.4V41.9c1.3-0.2,3.2-0.5,5.8-0.9c2.6-0.5,5.3-0.7,7.9-0.7c2.6,0,5,0.2,7,0.5
	c2.2,0.4,4,1.1,5.4,2.2c1.4,1.1,2.5,2.6,3.2,4.5c0.8,1.8,1.3,4.2,1.3,7.2V128.1z"/>
<path class="st0" d="M76.9,46.8c0.8,1.3,1.6,3.1,2.2,5.4c0.7,2.2,1.1,4.5,1.1,6.9c0,4.7-1,8.1-3.1,10.1c-1.9,1.9-4.6,2.9-7.9,2.9
	H31.3v20.4h39.5c1,1.3,1.7,3.1,2.3,5.2c0.7,2.2,1.1,4.5,1.1,6.9c0,4.6-1,7.9-3.1,9.9c-1.9,1.9-4.6,2.9-7.9,2.9H31.6v38.1
	c-1.3,0.4-3.4,0.7-6.3,1.1c-2.8,0.4-5.5,0.5-8.3,0.5c-2.8,0-5.2-0.2-7.4-0.7c-2-0.4-3.8-1.1-5.2-2.2c-1.4-1.1-2.5-2.6-3.2-4.5
	c-0.7-1.9-1.1-4.5-1.1-7.6V63.6c0-5.2,1.5-9.3,4.5-12.3c3-3,7.1-4.5,12.3-4.5H76.9z"/>
<path class="st0" d="M111.3,155c-1.2,0.2-2.9,0.4-5.3,0.7c-2.2,0.4-4.5,0.6-6.9,0.6c-2.3,0-4.5-0.1-6.4-0.4
	c-1.8-0.3-3.4-0.8-4.6-1.7c-1.3-0.8-2.3-1.9-3-3.3c-0.6-1.5-1-3.4-1-5.7V88.6c1.2-0.2,2.9-0.4,5.1-0.7c2.3-0.4,4.7-0.6,7-0.6
	c2.3,0,4.4,0.1,6.2,0.4c1.9,0.3,3.5,0.8,4.8,1.7c1.3,0.8,2.2,2,2.9,3.5c0.7,1.4,1.1,3.2,1.1,5.6V155z"/>
<path class="st2" d="M95.1,36.2c-2.4-3.3-5.6-6.1-9.4-7.7c-0.8,3.6-1.4,6.8,0.5,9.3C89,41.3,93.7,40.6,95.1,36.2z"/>
<path class="st2" d="M77.6,30.1c0.9-1.1,1.7-2.2,2.4-3.3c-1.2-0.2-2.4-0.3-3.7-0.3c-1.6,0-3.1,0.1-4.5,0.4
	c-0.6,3.3-0.2,7.3,2.3,11.8C74.6,35.7,75.4,32.7,77.6,30.1z"/>
<path class="st2" d="M141.2,49.5c0-12.7-10.3-23-23-23c-6.4,0-12.2,2.6-16.3,6.8c9,10.6,2.1,21.3-2.3,26.8
	c-2.3,2.9-10.7,12-10.5,18.5c0,0.4-0.1,0.7-0.1,1.1c0,4,3.3,7.3,7.3,7.3c4,0,7.3-3.3,7.3-7.3c0-1.7-0.6-3.3-1.6-4.6
	c4.2,3.1,5.6,10.7,5.3,13.6c-0.2,1.9-0.7,3.8-1.6,5.6l28.8-28.5c2.4-2.4,4.2-5.2,5.4-8.4C140.7,54.8,141.2,52.2,141.2,49.5z"/>
<path class="st2" d="M62.6,39.7c0,0-2.8,3.4-2.8,7.3c-0.1,6.8,6,8.6,9.3,4.5c4.2-5.4-3.5-13.7,0.5-23.9
	c-9.4,2.9-16.2,11.6-16.2,21.9c0,0.3,0,0.6,0,0.9C55.4,45.9,58.4,42.1,62.6,39.7z"/>
<rect x="119.5" y="34.1" class="st3" width="6.6" height="26.2"/>
<rect x="109.7" y="43.9" class="st3" width="26.2" height="6.6"/>
<linearGradient id="SVGID_1_" gradientUnits="userSpaceOnUse" x1="53.3777" y1="97.3743" x2="93.0273" y2="97.3743" gradientTransform="matrix(1 0 0 -1 0 161.8898)">
	<stop  offset="0" style="stop-color:#DA2321"/>
	<stop  offset="1" style="stop-color:#F78924"/>
</linearGradient>
<path class="st4" d="M107.3,88.8c0.3-2.8-1.1-10.5-5.3-13.6c1,1.3,1.6,2.8,1.6,4.6c0,4-3.3,7.3-7.3,7.3c-4,0-7.3-3.3-7.3-7.3
	c0-0.4,0-0.7,0.1-1.1c-0.2-6.4,8.2-15.5,10.5-18.5c4.4-5.6,11.3-16.3,2.3-26.8c-1.9,1.9-3.5,4.2-4.6,6.7c-0.6-1.3-1.3-2.6-2.2-3.8
	c-1.4,4.3-6.1,5-8.9,1.6c-2-2.5-1.4-5.6-0.5-9.3c-1.8-0.8-3.7-1.3-5.7-1.7c-0.7,1.1-1.5,2.1-2.4,3.3c-2.2,2.7-3.1,5.7-3.5,8.7
	c-2.5-4.6-2.9-8.5-2.3-11.8c-0.8,0.1-1.6,0.4-2.3,0.6c-4,10.2,3.7,18.5-0.5,24c-3.2,4.1-9.3,2.4-9.3-4.5c0-4,2.8-7.3,2.8-7.3
	c-4.1,2.4-7.2,6.2-9.2,10.6c0.1,2.4,0.5,4.6,1.3,6.8c0.9,2.7,2.4,5.2,4.2,7.3c0.8,0.9,1.6,1.8,2.6,2.5l35,34.8
	c0.2,0.2,0.5,0.3,0.8,0.3c0.3,0,0.6-0.1,0.8-0.3l7.6-7.6C106.6,92.6,107.1,90.7,107.3,88.8z"/>
</svg>
