<svg width="19" height="20" viewBox="0 0 19 20" fill="none" xmlns="http://www.w3.org/2000/svg">
<path d="M11.9999 4.5C12.7371 4.64382 13.4688 4.96892 13.9999 5.5C14.531 6.03108 14.8561 6.76284 14.9999 7.5M12.4999 1C14.0314 1.17014 15.4096 1.91107 16.4999 3C17.5902 4.08893 18.3278 5.46869 18.4999 7M18.4994 14.4767V17.1864C18.5036 18.2223 17.5722 19.0873 16.5264 18.9929C7.50004 19 0.499995 11.935 0.507065 2.96919C0.412875 1.92895 1.27358 1.00106 2.30811 1.00009H5.02325C5.46247 0.99577 5.88829 1.151 6.22132 1.43684C7.16813 2.24949 7.77714 5.00777 7.54284 6.10428C7.35988 6.96036 6.4969 7.55929 5.9102 8.1448C7.19858 10.4062 9.07464 12.2785 11.3404 13.5644C11.9271 12.9788 12.5273 12.1176 13.385 11.935C14.4854 11.7008 17.2614 12.3106 18.0708 13.264C18.3579 13.6021 18.5104 14.0337 18.4994 14.4767Z" stroke="white" stroke-linecap="round" stroke-linejoin="round"/>
</svg>
