<svg width="15" height="15" viewBox="0 0 15 15" fill="none" xmlns="http://www.w3.org/2000/svg">
<path d="M14 7.38662C14 10.9139 11.0899 13.7732 7.5 13.7732C3.91015 13.7732 1 10.9139 1 7.38662C1 3.85939 3.91015 1 7.5 1C11.0899 1 14 3.85939 14 7.38662Z" fill="#356EFF"/>
<path d="M11.1112 5.25775L6.05556 10.2251L3.88889 8.09625M14 7.38662C14 10.9139 11.0899 13.7732 7.5 13.7732C3.91015 13.7732 1 10.9139 1 7.38662C1 3.85939 3.91015 1 7.5 1C11.0899 1 14 3.85939 14 7.38662Z" fill="#356EFF"/>
<path d="M11.1112 5.25775L6.05556 10.2251L3.88889 8.09625M14 7.38662C14 10.9139 11.0899 13.7732 7.5 13.7732C3.91015 13.7732 1 10.9139 1 7.38662C1 3.85939 3.91015 1 7.5 1C11.0899 1 14 3.85939 14 7.38662Z" stroke="white" stroke-linecap="round" stroke-linejoin="round"/>
</svg>
